<svg xmlns="http://www.w3.org/2000/svg" viewBox="0 0 512 512" style="height: 512px; width: 512px;"><g class="" transform="translate(7,-6)" style="touch-action: none;"><g><path d="M491.313 21.406C331.102 120.193 194.688 226.866 70 350.906C99.11 329.29 133.387 313.046 173.875 301.626C214.825 241.469 274.798 194.926 344.719 171.469C321.197 241.269 273.972 301.604 213.405 342.719C203.645 381.072 186.57 412.099 165.405 439.093C289.153 314.63 403.748 181.7 491.312 21.406Z" class="" fill="#c9c9c9" fill-opacity="1"></path><path d="M132.656 345.5L132.656 345.844C102.13 398.688 61.536 433.162 17.219 461.314C12.329 489.604 26.996 500.381 51.969 495.874C82.563 444.184 120.659 407.822 167.405 380.406C167.405 360.846 155.042 345.5 132.655 345.5Z" class="selected" fill="#8b572a" fill-opacity="1"></path></g></g></svg>