<svg xmlns="http://www.w3.org/2000/svg" viewBox="0 0 512 512" style="height: 512px; width: 512px;"><path d="M0 0h512v512H0z" fill="#050000" fill-opacity="1"></path><g class="" transform="translate(0,0)" style="touch-action: none;"><g><path d="M127.4 14.4C53.12 118.8 122.1 138.9 164.9 162.5C172.3 146.4 180.8 131.8 192.2 118.1C140.2 96 130.8 47.9 127.4 14.4Z" class="" fill="#ffffff" fill-opacity="1"></path><path d="M384.6 14.4C381.2 47.9 371.8 96 319.8 118.1C331.2 131.8 339.7 146.4 347.1 162.5C390 138.9 458.8 118.8 384.6 14.4Z" class="" fill="#ffffff" fill-opacity="1"></path><path d="M256 89.5C210.7 117.1 193.7 143.9 177.6 184.3C225.5 196 286.4 196 334.4 184.3C318.3 143.9 301.3 117.1 256 89.5Z" class="" fill="#9b9b9b" fill-opacity="1"></path><path d="M148.8 196.1C143.5 206.4 124.2 270.8 124 287.9C128.7 283 133.5 278 138.2 273L144.8 278.8C145.9 253.2 157.4 226 169.9 201.3C163.4 199.7 155.4 198 148.8 196.1Z" class="" fill="#f8e71c" fill-opacity="1"></path><path d="M363.2 196.1C357 197.8 347.9 200 342.1 201.3C354.5 226 366.1 253.2 367.1 278.8L373.8 273L388 287.9C398.5 275.5 368.5 206.4 363.2 196.1Z" class="" fill="#f8e71c" fill-opacity="1"></path><path d="M189.6 204.9L181.7 228.7C204.5 235.2 225.3 241.3 250.7 248.7L244.2 265.7C238.6 264.1 232.8 262.5 227.1 260.8C224.2 266.6 217.6 270.4 210.4 270.4C200.2 270.4 192.1 263.2 192.1 254.4C192.1 253.1 192.2 251.9 192.5 250.7L175.9 246L162 287.7L198.1 322L212.7 295L299.2 295L313.9 322L350 287.7L336.1 246C330.7 247.5 325.3 249 320 250.6C320.4 251.8 320.5 253.1 320.5 254.4C320.5 263.2 312.4 270.4 302.1 270.4C294.8 270.4 288.2 266.5 285.3 260.7C279.4 262.4 273.6 264 267.8 265.7L261.2 248.7C284.4 241.9 305.6 235.8 330.3 228.7L322.3 204.9C274.6 216 237.4 216 189.6 204.9Z" class="" fill="#ffffff" fill-opacity="1"></path><path d="M146.4 299.7L75.98 373.4L123.4 373.4L105 421.4L162.5 421.4L147.8 447L185.3 436.1L256 497.6L326.7 436.1L364.1 447L349.4 421.4L406.9 421.4L388.6 373.4L436 373.4L365.5 299.7L308.1 349.6L286.2 311.4L225.5 311.4L203.6 349.6Z" class="" fill="#ff5d00" fill-opacity="1"></path><path d="M237.6 325.4L274.4 325.4L274.4 343.4L237.6 343.4Z" class="selected" fill="#ff5d00" fill-opacity="1"></path></g></g></svg>